<svg width="31" height="20" viewBox="0 0 31 20" fill="none" xmlns="http://www.w3.org/2000/svg">
<path d="M10.6781 19.6938C10.128 19.6938 9.61236 19.5897 9.13106 19.3816C8.64976 19.1734 8.25785 18.8843 7.95532 18.5143L0.7771 9.98032L7.95532 1.44634C8.25785 1.0763 8.64976 0.78721 9.13106 0.579064C9.61236 0.370919 10.128 0.266846 10.6781 0.266846H27.1797C28.0873 0.266846 28.8643 0.538592 29.5106 1.08208C30.1569 1.62558 30.4801 2.27892 30.4801 3.04212V16.9185C30.4801 17.6817 30.1569 18.3351 29.5106 18.8785C28.8643 19.422 28.0873 19.6938 27.1797 19.6938H10.6781ZM10.6781 16.9185H27.1797V3.04212H10.6781L4.82 9.98032L10.6781 16.9185ZM14.6385 15.5309L18.9289 11.923L23.2193 15.5309L25.5296 13.5882L21.2391 9.98032L25.5296 6.37245L23.2193 4.42976L18.9289 8.03762L14.6385 4.42976L12.3283 6.37245L16.6187 9.98032L12.3283 13.5882L14.6385 15.5309Z" fill="black" fill-opacity="0.89"/>
</svg>
