<svg width="43" height="42" viewBox="0 0 43 42" fill="none" xmlns="http://www.w3.org/2000/svg">
<path d="M21.8564 5.09229C16.0638 5.09229 11.3563 9.79978 11.3563 15.5923V20.6498C11.3563 21.7173 10.9013 23.3448 10.3588 24.2548L8.34632 27.5973C7.10382 29.6623 7.96132 31.9548 10.2363 32.7248C17.7788 35.2448 25.9164 35.2448 33.4589 32.7248C35.5764 32.0248 36.5039 29.5223 35.3489 27.5973L33.3364 24.2548C32.8114 23.3448 32.3564 21.7173 32.3564 20.6498V15.5923C32.3564 9.81728 27.6314 5.09229 21.8564 5.09229Z" stroke="#292D32" stroke-width="2.625" stroke-miterlimit="10" stroke-linecap="round"/>
<path d="M25.0939 5.60002C24.5514 5.44252 23.9914 5.32002 23.4139 5.25002C21.7339 5.04002 20.1239 5.16252 18.6189 5.60002C19.1264 4.30502 20.3864 3.39502 21.8564 3.39502C23.3264 3.39502 24.5864 4.30502 25.0939 5.60002Z" stroke="#292D32" stroke-width="2.625" stroke-miterlimit="10" stroke-linecap="round" stroke-linejoin="round"/>
<path d="M27.1064 33.3552C27.1064 36.2427 24.7439 38.6052 21.8564 38.6052C20.4214 38.6052 19.0914 38.0102 18.1464 37.0652C17.2014 36.1202 16.6064 34.7902 16.6064 33.3552" stroke="#292D32" stroke-width="2.625" stroke-miterlimit="10"/>
<circle cx="31.0088" cy="10.8501" r="5.25" fill="#FF7979"/>
</svg>
