<svg width="24" height="25" viewBox="0 0 24 25" fill="none" xmlns="http://www.w3.org/2000/svg">
<g clip-path="url(#clip0_253_667)">
<path d="M10 21C4.477 21 0 16.523 0 11C0 5.477 4.477 1 10 1C15.523 1 20 5.477 20 11C20 16.523 15.523 21 10 21ZM10 19C12.1217 19 14.1566 18.1571 15.6569 16.6569C17.1571 15.1566 18 13.1217 18 11C18 8.87827 17.1571 6.84344 15.6569 5.34315C14.1566 3.84285 12.1217 3 10 3C7.87827 3 5.84344 3.84285 4.34315 5.34315C2.84285 6.84344 2 8.87827 2 11C2 13.1217 2.84285 15.1566 4.34315 16.6569C5.84344 18.1571 7.87827 19 10 19ZM9 14H11V16H9V14ZM11 12.355V13H9V11.5C9 11.2348 9.10536 10.9804 9.29289 10.7929C9.48043 10.6054 9.73478 10.5 10 10.5C10.2841 10.5 10.5623 10.4193 10.8023 10.2673C11.0423 10.1154 11.2343 9.89837 11.3558 9.64158C11.4773 9.3848 11.5234 9.0988 11.4887 8.81684C11.454 8.53489 11.34 8.26858 11.1598 8.04891C10.9797 7.82924 10.7409 7.66523 10.4712 7.57597C10.2015 7.48671 9.91204 7.47587 9.63643 7.54471C9.36081 7.61354 9.11042 7.75923 8.91437 7.96482C8.71832 8.1704 8.58468 8.42743 8.529 8.706L6.567 8.313C6.68863 7.70508 6.96951 7.14037 7.38092 6.67659C7.79233 6.2128 8.31952 5.86658 8.90859 5.67332C9.49766 5.48006 10.1275 5.44669 10.7337 5.57661C11.3399 5.70654 11.9007 5.99511 12.3588 6.41282C12.8169 6.83054 13.1559 7.36241 13.3411 7.95406C13.5263 8.54572 13.5511 9.17594 13.4129 9.78031C13.2747 10.3847 12.9785 10.9415 12.5545 11.3939C12.1306 11.8462 11.5941 12.1779 11 12.355Z" fill="black"/>
</g>
<defs>
<clipPath id="clip0_253_667">
<rect width="24" height="24" fill="white" transform="translate(0 0.700684)"/>
</clipPath>
</defs>
</svg>
