<svg width="24" height="25" viewBox="0 0 24 25" fill="none" xmlns="http://www.w3.org/2000/svg">
<g clip-path="url(#clip0_253_671)">
<path d="M16 17.9998L21 12.9998M21 12.9998L16 7.99982M21 12.9998H9M12 17.9998C12 18.2954 12 18.4432 11.989 18.5712C11.8748 19.9018 10.8949 20.9967 9.58503 21.2571C9.45903 21.2821 9.31202 21.2985 9.01835 21.3311L7.99694 21.4446C6.46248 21.6151 5.69521 21.7003 5.08566 21.5053C4.27293 21.2452 3.60942 20.6513 3.26118 19.8723C3 19.288 3 18.5161 3 16.9721V9.02751C3 7.48358 3 6.71162 3.26118 6.12734C3.60942 5.3483 4.27293 4.75442 5.08566 4.49435C5.69521 4.29929 6.46246 4.38454 7.99694 4.55503L9.01835 4.66852C9.31212 4.70117 9.45901 4.71749 9.58503 4.74254C10.8949 5.00297 11.8748 6.09786 11.989 7.42843C12 7.55645 12 7.70424 12 7.99982" stroke="black" stroke-width="2" stroke-linecap="round" stroke-linejoin="round"/>
</g>
<defs>
<clipPath id="clip0_253_671">
<rect width="24" height="24" fill="white" transform="translate(0 0.700684)"/>
</clipPath>
</defs>
</svg>
