<svg width="28" height="22" viewBox="0 0 28 22" fill="none" xmlns="http://www.w3.org/2000/svg">
<path d="M21.486 15.8312L27.1967 20.3473L25.31 21.8397L19.6007 17.3225C17.4763 18.6696 14.834 19.4022 12.1113 19.3992C5.48733 19.3992 0.111328 15.1467 0.111328 9.90698C0.111328 4.66729 5.48733 0.414795 12.1113 0.414795C18.7353 0.414795 24.1113 4.66729 24.1113 9.90698C24.1152 12.0607 23.189 14.1508 21.486 15.8312ZM18.8113 15.0486C20.5035 13.6721 21.4485 11.827 21.4447 9.90698C21.4447 5.82745 17.2673 2.52417 12.1113 2.52417C6.95399 2.52417 2.77799 5.82745 2.77799 9.90698C2.77799 13.9855 6.95399 17.2898 12.1113 17.2898C14.5386 17.2928 16.8712 16.5453 18.6113 15.2068L18.8113 15.0486V15.0486Z" fill="black"/>
</svg>
