<svg width="24" height="25" viewBox="0 0 24 25" fill="none" xmlns="http://www.w3.org/2000/svg">
<g clip-path="url(#clip0_253_662)">
<path d="M12 16C13.6569 16 15 14.6569 15 13C15 11.3431 13.6569 10 12 10C10.3431 10 9 11.3431 9 13C9 14.6569 10.3431 16 12 16Z" stroke="black" stroke-width="2" stroke-miterlimit="10" stroke-linecap="round" stroke-linejoin="round"/>
<path d="M2 13.8799V12.1199C2 11.0799 2.85 10.2199 3.9 10.2199C5.71 10.2199 6.45 8.93994 5.54 7.36994C5.02 6.46994 5.33 5.29994 6.24 4.77994L7.97 3.78994C8.76 3.31994 9.78 3.59994 10.25 4.38994L10.36 4.57994C11.26 6.14994 12.74 6.14994 13.65 4.57994L13.76 4.38994C14.23 3.59994 15.25 3.31994 16.04 3.78994L17.77 4.77994C18.68 5.29994 18.99 6.46994 18.47 7.36994C17.56 8.93994 18.3 10.2199 20.11 10.2199C21.15 10.2199 22.01 11.0699 22.01 12.1199V13.8799C22.01 14.9199 21.16 15.7799 20.11 15.7799C18.3 15.7799 17.56 17.0599 18.47 18.6299C18.99 19.5399 18.68 20.6999 17.77 21.2199L16.04 22.2099C15.25 22.6799 14.23 22.3999 13.76 21.6099L13.65 21.4199C12.75 19.8499 11.27 19.8499 10.36 21.4199L10.25 21.6099C9.78 22.3999 8.76 22.6799 7.97 22.2099L6.24 21.2199C5.33 20.6999 5.02 19.5299 5.54 18.6299C6.45 17.0599 5.71 15.7799 3.9 15.7799C2.85 15.7799 2 14.9199 2 13.8799Z" stroke="black" stroke-width="2" stroke-miterlimit="10" stroke-linecap="round" stroke-linejoin="round"/>
</g>
<defs>
<clipPath id="clip0_253_662">
<rect width="24" height="24" fill="white" transform="translate(0 0.700684)"/>
</clipPath>
</defs>
</svg>
